<?xml version="1.0" encoding="utf-8"?>
<!-- Generator: Adobe Illustrator 16.0.0, SVG Export Plug-In . SVG Version: 6.00 Build 0)  -->
<!DOCTYPE svg PUBLIC "-//W3C//DTD SVG 1.1//EN" "http://www.w3.org/Graphics/SVG/1.1/DTD/svg11.dtd">
<svg version="1.1" id="Layer_1" xmlns="http://www.w3.org/2000/svg" xmlns:xlink="http://www.w3.org/1999/xlink" x="0px" y="0px"
	 width="800px" height="800px" viewBox="0 0 800 800" enable-background="new 0 0 800 800" xml:space="preserve">
<path fill="#666666" d="M613.7,106.7H196.5c-46.723-0.111-84.689,37.676-84.8,84.399c0,0.067,0,0.134,0,0.2v417.4
	c0,46.723,37.877,84.6,84.601,84.6H613.7c46.724,0,84.6-37.877,84.6-84.6V191.3C698.3,144.577,660.424,106.7,613.7,106.7z
	 M405.101,504.3c-57.659,0-104.4-46.741-104.4-104.399c0-57.659,46.741-104.4,104.399-104.4c57.659,0,104.4,46.741,104.4,104.4l0,0
	C509.5,457.559,462.759,504.3,405.101,504.3z M622.101,217.5c-18.226-0.003-32.998-14.78-32.995-33.005
	c0.003-18.226,14.78-32.998,33.006-32.995c18.225,0.003,32.997,14.78,32.994,33.005c0,0.198-0.002,0.396-0.005,0.595
	C654.773,203.091,640.094,217.503,622.101,217.5z"/>
</svg>
