<?xml version="1.0" encoding="utf-8"?>
<!-- Generator: Adobe Illustrator 16.0.0, SVG Export Plug-In . SVG Version: 6.00 Build 0)  -->
<!DOCTYPE svg PUBLIC "-//W3C//DTD SVG 1.1//EN" "http://www.w3.org/Graphics/SVG/1.1/DTD/svg11.dtd">
<svg version="1.1" id="Layer_1" xmlns="http://www.w3.org/2000/svg" xmlns:xlink="http://www.w3.org/1999/xlink" x="0px" y="0px"
	 width="338px" height="338px" viewBox="73.5 58 338 338" enable-background="new 73.5 58 338 338" xml:space="preserve">
<title>web</title>
<g>
	<path d="M247,73.867c-48.991,0.037-88.697,39.743-88.733,88.732c0,40.467,59.267,167.801,74.399,194.467
		c2.934,5.199,8.399,15.732,14.334,15.732c5.933,0,11.398-10.533,14.332-15.666c15.134-26.667,74.399-154.066,74.399-194.533
		C335.697,113.609,295.99,73.903,247,73.867z M247,216c-28.903,0.037-52.363-23.364-52.4-52.268
		c-0.037-28.902,23.363-52.362,52.267-52.399c28.904-0.037,52.363,23.364,52.399,52.267c0,0.022,0.001,0.045,0.001,0.066
		C299.267,192.543,275.875,215.963,247,216z"/>
</g>
</svg>
