<?xml version="1.0" encoding="utf-8"?>
<!-- Generator: Adobe Illustrator 16.0.0, SVG Export Plug-In . SVG Version: 6.00 Build 0)  -->
<!DOCTYPE svg PUBLIC "-//W3C//DTD SVG 1.1//EN" "http://www.w3.org/Graphics/SVG/1.1/DTD/svg11.dtd">
<svg version="1.1"
	 id="Layer_1" xmlns:svg="http://www.w3.org/2000/svg" xmlns:dc="http://purl.org/dc/elements/1.1/" xmlns:rdf="http://www.w3.org/1999/02/22-rdf-syntax-ns#" xmlns:cc="http://creativecommons.org/ns#" xmlns:sodipodi="http://sodipodi.sourceforge.net/DTD/sodipodi-0.dtd" xmlns:inkscape="http://www.inkscape.org/namespaces/inkscape"
	 xmlns="http://www.w3.org/2000/svg" xmlns:xlink="http://www.w3.org/1999/xlink" x="0px" y="0px" width="627px" height="627px"
	 viewBox="0 0 627 627" enable-background="new 0 0 627 627" xml:space="preserve">
<g transform="translate(0,-952.36218)">
	<path fill="#444444" d="M96.322,1108.061c-7.381,0-14.156,2.218-19.946,5.867l214.356,187.174c11.327,9.896,25.035,9.895,36.379,0l214.752-187.37
		c-5.773-3.612-12.611-5.67-19.951-5.67L96.322,1108.061L96.322,1108.061z M60.922,1133.487c-1.302,3.818-2.151,7.858-2.151,12.126
		v250.346c0,20.802,16.749,37.553,37.549,37.553h425.589c20.802,0,37.55-16.751,37.55-37.553v-250.346
		c0-4.27-0.849-8.308-2.149-12.126l-213.774,186.587c-19.914,17.371-49.323,17.2-69.236-0.193l-213.379-186.39L60.922,1133.487
		L60.922,1133.487z"/>
</g>
</svg>
