<?xml version="1.0" encoding="utf-8"?>
<!-- Generator: Adobe Illustrator 16.0.0, SVG Export Plug-In . SVG Version: 6.00 Build 0)  -->
<!DOCTYPE svg PUBLIC "-//W3C//DTD SVG 1.1//EN" "http://www.w3.org/Graphics/SVG/1.1/DTD/svg11.dtd">
<svg version="1.1" id="Layer_1" xmlns="http://www.w3.org/2000/svg" xmlns:xlink="http://www.w3.org/1999/xlink" x="0px" y="0px"
	 width="652px" height="652px" viewBox="0 0 652 652" enable-background="new 0 0 652 652" xml:space="preserve">
<g>
	<path fill="#444444" d="M191.76,56.937l65.725,69.183c12.106,13.837,12.106,36.321-1.73,48.429l-53.617,50.158
		c24.214,57.076,48.428,91.669,83.021,129.719c36.321,36.321,81.291,69.185,127.991,93.398l53.617-50.158
		c13.837-13.836,36.32-13.836,50.157,1.73l63.996,69.184c13.836,13.837,13.836,36.32,0,48.429l-53.618,50.157
		c-77.832,74.373-204.093-22.484-316.516-138.367C103.551,321.564,13.612,176.278,87.985,105.365l53.618-50.158
		C155.439,41.37,177.924,43.1,191.76,56.937z"/>
</g>
</svg>
